<svg width="1200" height="675" viewBox="0 0 1200 675" xmlns="http://www.w3.org/2000/svg">
    <defs>
        <linearGradient id="chaosGradient" x1="0%" y1="0%" x2="100%" y2="100%">
            <stop offset="0%" style="stop-color:#f1f5f9;stop-opacity:1" />
            <stop offset="100%" style="stop-color:#e2e8f0;stop-opacity:1" />
        </linearGradient>
        <linearGradient id="strategyGradient" x1="0%" y1="0%" x2="100%" y2="100%">
            <stop offset="0%" style="stop-color:#0f172a;stop-opacity:1" />
            <stop offset="100%" style="stop-color:#1e293b;stop-opacity:1" />
        </linearGradient>
    </defs>

    <rect x="0" y="0" width="600" height="675" fill="url(#chaosGradient)"/>
    <rect x="600" y="0" width="600" height="675" fill="url(#strategyGradient)"/>
    
    <g transform="translate(50, 100)">
        <path d="M50 300 Q 100 100, 150 250 T 250 150 T 350 400" fill="none" stroke="#ef4444" stroke-width="3" stroke-dasharray="5,5"/>
        <circle cx="150" cy="250" r="5" fill="#ef4444"/>
        <circle cx="250" cy="150" r="5" fill="#ef4444"/>
        
        <rect x="50" y="50" width="80" height="80" fill="#fef08a" transform="rotate(-5)" stroke="#eab308" stroke-width="1"/>
        <rect x="150" y="80" width="80" height="80" fill="#fecaca" transform="rotate(8)" stroke="#ef4444" stroke-width="1"/>
        <rect x="80" y="150" width="80" height="80" fill="#bfdbfe" transform="rotate(-3)" stroke="#3b82f6" stroke-width="1"/>

        <text x="250" y="80" font-family="monospace" font-size="60" font-weight="bold" fill="#94a3b8" opacity="0.3" transform="rotate(-10)">CHAOS</text>
        <text x="300" y="350" font-family="sans-serif" font-size="24" font-weight="bold" fill="#64748b">"Help!"</text>
        
        <path d="M100 250 L50 350" stroke="#64748b" stroke-width="2" marker-end="url(#arrow)"/>
        <path d="M300 200 L400 150" stroke="#64748b" stroke-width="2" marker-end="url(#arrow)"/>
    </g>

    <g transform="translate(650, 100)">
        <rect x="50" y="20" width="400" height="500" rx="20" fill="#f8fafc" stroke="#334155" stroke-width="10"/>
        
        <rect x="70" y="40" width="360" height="460" fill="#ffffff" rx="10"/>
        
        <rect x="70" y="40" width="360" height="60" rx="10" fill="#1f432d"/>
        <text x="250" y="80" font-family="serif" font-size="24" font-weight="bold" fill="white" text-anchor="middle">STRATEGY</text>
        
        <g transform="translate(100, 140)">
            <rect x="0" y="0" width="20" height="20" rx="4" fill="#dcfce7"/>
            <path d="M5 10 L8 13 L15 6" stroke="#166534" stroke-width="2" fill="none"/>
            <rect x="30" y="5" width="200" height="10" rx="2" fill="#e2e8f0"/>
            
            <rect x="0" y="50" width="20" height="20" rx="4" fill="#dcfce7"/>
            <path d="M5 60 L8 63 L15 56" stroke="#166534" stroke-width="2" fill="none"/>
            <rect x="30" y="55" width="180" height="10" rx="2" fill="#e2e8f0"/>
            
            <rect x="0" y="100" width="20" height="20" rx="4" fill="#dcfce7"/>
            <path d="M5 110 L8 113 L15 106" stroke="#166534" stroke-width="2" fill="none"/>
            <rect x="30" y="105" width="220" height="10" rx="2" fill="#e2e8f0"/>
            
            <rect x="0" y="160" width="300" height="120" rx="4" fill="#f1f5f9"/>
            <path d="M20 250 L 80 220 L 140 230 L 200 180 L 280 190" fill="none" stroke="#3b82f6" stroke-width="3"/>
            <circle cx="200" cy="180" r="4" fill="#3b82f6"/>
            <text x="200" y="165" font-family="monospace" font-size="12" fill="#3b82f6" font-weight="bold">+24% ROI</text>
        </g>
    </g>

    <line x1="600" y1="50" x2="600" y2="625" stroke="#94a3b8" stroke-width="2" stroke-dasharray="10,10"/>
    
    <rect x="400" y="580" width="400" height="60" rx="30" fill="white" stroke="#e2e8f0" stroke-width="2" filter="drop-shadow(0 10px 8px rgb(0 0 0 / 0.1))"/>
    <text x="600" y="618" font-family="serif" font-weight="bold" font-size="20" fill="#0f172a" text-anchor="middle" letter-spacing="1">INTERVIEW MASTERY</text>
</svg>
