<svg width="400" height="400" viewBox="0 0 400 400" xmlns="http://www.w3.org/2000/svg">
    <defs>
        <linearGradient id="grad" x1="0%" y1="0%" x2="100%" y2="100%">
            <stop offset="0%" style="stop-color:#1f432d;stop-opacity:1" />
            <stop offset="100%" style="stop-color:#0f172a;stop-opacity:1" />
        </linearGradient>
    </defs>
    <rect width="400" height="400" rx="40" fill="url(#grad)"/>
    
    <g transform="translate(100, 80)" fill="white">
        <path d="M100 180c-44.1 0-80-35.9-80-80V60c0-44.1 35.9-80 80-80s80 35.9 80 80v40c0 44.1-35.9 80-80 80z"/>
        <path d="M170 140v-40c0-38.6-31.4-70-70-70s-70 31.4-70 70v40c0 38.6 31.4 70 70 70s70-31.4 70-70z" fill-opacity="0.2"/>
        <path d="M190 100v40c0 49.6-40.4 90-90 90s-90-40.4-90-90v-40h-20v40c0 55.6 40.8 101.9 94 109.1V300h-60v20h152v-20h-60v-50.9c53.2-7.2 94-53.5 94-109.1v-40h-20z"/>
    </g>
    
    <text x="200" y="360" font-family="serif" font-weight="bold" font-size="40" fill="white" text-anchor="middle" letter-spacing="2">MARTECH CAST</text>
</svg>
