<svg width="1200" height="675" viewBox="0 0 1200 675" xmlns="http://www.w3.org/2000/svg">
    <rect width="1200" height="675" fill="#f8fafc"/>
    
    <rect x="150" y="100" width="600" height="400" rx="20" fill="#1e293b"/> <rect x="170" y="120" width="560" height="360" fill="#0f172a"/> <rect x="420" y="150" width="60" height="30" rx="4" fill="#22c55e"/>
    <path d="M450 180 L450 210" stroke="#64748b" stroke-width="2"/>
    
    <polygon points="450,210 480,230 450,250 420,230" fill="#3b82f6"/>
    
    <path d="M420 230 L350 230 L350 280" stroke="#64748b" stroke-width="2"/>
    <path d="M480 230 L550 230 L550 280" stroke="#64748b" stroke-width="2"/>
    
    <rect x="320" y="280" width="60" height="30" rx="4" fill="#a855f7"/>
    <rect x="520" y="280" width="60" height="30" rx="4" fill="#a855f7"/>
    
    <path d="M350 310 L350 340 L400 340" stroke="#64748b" stroke-width="2"/>
    <path d="M550 310 L550 340 L500 340" stroke="#64748b" stroke-width="2"/>
    
    <circle cx="450" cy="340" r="15" fill="#f59e0b"/>
    <path d="M450 355 L450 400" stroke="#64748b" stroke-width="2"/>
    
    <rect x="420" y="400" width="60" height="30" rx="4" fill="#ef4444"/>

    <rect x="800" y="100" width="300" height="420" fill="white" filter="drop-shadow(0 10px 8px rgb(0 0 0 / 0.04))"/>
    
    <rect x="830" y="130" width="100" height="20" fill="#334155"/> <rect x="830" y="170" width="240" height="4" fill="#e2e8f0"/>
    <rect x="830" y="180" width="200" height="4" fill="#e2e8f0"/>
    
    <rect x="830" y="220" width="240" height="4" fill="#e2e8f0"/>
    <rect x="830" y="230" width="220" height="4" fill="#e2e8f0"/>
    
    <text x="830" y="300" font-family="sans-serif" font-weight="bold" font-size="14" fill="#1f432d" letter-spacing="1">SKILLS</text>
    <rect x="830" y="315" width="240" height="2" fill="#cbd5e1"/>
    
    <rect x="830" y="330" width="60" height="15" rx="2" fill="#dcfce7"/> <rect x="900" y="330" width="80" height="15" rx="2" fill="#dcfce7"/> <rect x="830" y="355" width="70" height="15" rx="2" fill="#dcfce7"/> <path d="M1020 450 L1100 530" stroke="#475569" stroke-width="15" stroke-linecap="round"/>
    
    <circle cx="950" cy="380" r="90" fill="none" stroke="#94a3b8" stroke-width="8"/>
    
    <circle cx="950" cy="380" r="86" fill="rgba(200, 230, 255, 0.2)"/>
    
    <text x="950" y="365" font-family="monospace" font-weight="bold" font-size="24" fill="#166534" text-anchor="middle">SQL</text>
    <text x="950" y="395" font-family="monospace" font-weight="bold" font-size="24" fill="#166534" text-anchor="middle">PYTHON</text>
    <text x="950" y="425" font-family="monospace" font-weight="bold" font-size="24" fill="#166534" text-anchor="middle">API</text>
    
    <circle cx="100" cy="550" r="40" fill="#ffffff" stroke="#e2e8f0" stroke-width="2"/>
    <circle cx="100" cy="550" r="30" fill="#78350f"/> </svg>
