<svg width="1200" height="675" viewBox="0 0 1200 675" xmlns="http://www.w3.org/2000/svg">
    <defs>
        <filter id="shadow" x="-20%" y="-20%" width="140%" height="140%">
            <feGaussianBlur in="SourceAlpha" stdDeviation="5"/>
            <feOffset dx="2" dy="4" result="offsetblur"/>
            <feComponentTransfer>
                <feFuncA type="linear" slope="0.1"/>
            </feComponentTransfer>
            <feMerge>
                <feMergeNode/>
                <feMergeNode in="SourceGraphic"/>
            </feMerge>
        </filter>
        <pattern id="grid" width="40" height="40" patternUnits="userSpaceOnUse">
            <path d="M 40 0 L 0 0 0 40" fill="none" stroke="#e2e8f0" stroke-width="1"/>
        </pattern>
    </defs>
    <rect width="1200" height="675" fill="#f8fafc"/>
    <rect width="1200" height="675" fill="url(#grid)"/>
    <g transform="translate(100, 150)" filter="url(#shadow)">
        <rect x="0" y="0" width="600" height="400" rx="20" fill="#1e293b"/>
        <rect x="20" y="20" width="560" height="360" fill="#0f172a"/>
        <g transform="translate(50, 50)">
            <rect x="0" y="0" width="460" height="40" rx="4" fill="#334155"/>
            <circle cx="20" cy="20" r="5" fill="#ef4444"/>
            <circle cx="40" cy="20" r="5" fill="#f59e0b"/>
            <circle cx="60" cy="20" r="5" fill="#22c55e"/>
            <g transform="translate(180, 80)">
                <rect x="-40" y="0" width="80" height="30" rx="4" fill="#22c55e"/>
                <line x1="0" y1="30" x2="0" y2="60" stroke="#64748b" stroke-width="2"/>
                <polygon points="0,60 30,80 0,100 -30,80" fill="#3b82f6"/>
                <path d="M-30 80 L-100 80 L-100 130" stroke="#64748b" stroke-width="2" fill="none"/>
                <rect x="-140" y="130" width="80" height="30" rx="4" fill="#a855f7"/>
                <path d="M30 80 L100 80 L100 130" stroke="#64748b" stroke-width="2" fill="none"/>
                <rect x="60" y="130" width="80" height="30" rx="4" fill="#a855f7"/>
                <path d="M-100 160 L-100 190 L0 190" stroke="#64748b" stroke-width="2" fill="none"/>
                <path d="M100 160 L100 190 L0 190" stroke="#64748b" stroke-width="2" fill="none"/>
                <circle cx="0" cy="190" r="10" fill="#f59e0b"/>
                <line x1="0" y1="200" x2="0" y2="230" stroke="#64748b" stroke-width="2"/>
                <rect x="-40" y="230" width="80" height="30" rx="4" fill="#ef4444"/>
            </g>
        </g>
    </g>
    <g transform="translate(800, 80) rotate(-5)" filter="url(#shadow)">
        <rect x="0" y="0" width="300" height="420" fill="white"/>
        <rect x="30" y="40" width="80" height="80" rx="40" fill="#e2e8f0"/>
        <rect x="130" y="50" width="140" height="15" fill="#334155"/>
        <rect x="130" y="75" width="100" height="10" fill="#94a3b8"/>
        <rect x="30" y="150" width="240" height="2" fill="#e2e8f0"/>
        <rect x="30" y="170" width="240" height="8" fill="#e2e8f0"/>
        <rect x="30" y="190" width="220" height="8" fill="#e2e8f0"/>
        <rect x="30" y="210" width="230" height="8" fill="#e2e8f0"/>
        <rect x="30" y="250" width="60" height="12" fill="#1f432d"/>
        <g transform="translate(30, 280)">
            <rect x="0" y="0" width="70" height="20" rx="4" fill="#dcfce7"/>
            <text x="10" y="14" font-family="monospace" font-size="10" fill="#166534" font-weight="bold">SQL</text>
            <rect x="80" y="0" width="90" height="20" rx="4" fill="#dcfce7"/>
            <text x="90" y="14" font-family="monospace" font-size="10" fill="#166534" font-weight="bold">Marketo</text>
            <rect x="0" y="30" width="80" height="20" rx="4" fill="#dcfce7"/>
            <text x="10" y="44" font-family="monospace" font-size="10" fill="#166534" font-weight="bold">Python</text>
        </g>
    </g>
    <g transform="translate(850, 300) rotate(-15)" filter="url(#shadow)">
        <rect x="40" y="80" width="15" height="100" rx="7.5" fill="#475569" transform="rotate(-45 47.5 130)"/>
        <circle cx="50" cy="50" r="60" fill="none" stroke="#334155" stroke-width="8"/>
        <circle cx="50" cy="50" r="56" fill="rgba(255,255,255,0.1)"/>
        <path d="M20 20 Q 35 10, 50 20" stroke="white" stroke-width="4" stroke-opacity="0.5" fill="none"/>
    </g>
    <text x="600" y="620" font-family="serif" font-weight="bold" font-size="24" fill="#94a3b8" text-anchor="middle" letter-spacing="2">VISUALIZING THE INVISIBLE</text>
</svg>
