<svg width="1200" height="675" viewBox="0 0 1200 675" xmlns="http://www.w3.org/2000/svg">
    <defs>
        <linearGradient id="fade" x1="0" y1="0" x2="0" y2="1">
            <stop offset="0%" stop-color="#22c55e" stop-opacity="0"/>
            <stop offset="50%" stop-color="#22c55e" stop-opacity="1"/>
            <stop offset="100%" stop-color="#22c55e" stop-opacity="0"/>
        </linearGradient>
    </defs>
    
    <rect width="1200" height="675" fill="#020617"/>
    
    <g font-family="monospace" font-size="20" font-weight="bold" fill="url(#fade)" opacity="0.8">
        <text x="50" y="50">SELECT</text>
        <text x="50" y="100">FROM</text>
        <text x="50" y="150">LEADS</text>
        <text x="50" y="200">WHERE</text>
        <text x="50" y="250">$$$</text>
        
        <text x="200" y="120">API</text>
        <text x="200" y="170">{JSON}</text>
        <text x="200" y="220">POST</text>
        <text x="200" y="270">200 OK</text>
        <text x="200" y="320">✉️</text>

        <text x="350" y="80">JOIN</text>
        <text x="350" y="130">LEFT</text>
        <text x="350" y="180">NULL</text>
        <text x="350" y="230">⚙️</text>
        <text x="350" y="280">SYNC</text>

        <text x="500" y="200" opacity="0.5">MQL</text>
        <text x="500" y="250" opacity="0.5">SQL</text>
        <text x="500" y="300" opacity="0.5">CAC</text>
        
        <text x="650" y="150">ERROR</text>
        <text x="650" y="200">404</text>
        <text x="650" y="250">DEBUG</text>
        <text x="650" y="300">⚡</text>

        <text x="800" y="100">CRM</text>
        <text x="800" y="150">MAP</text>
        <text x="800" y="200">CDP</text>
        <text x="800" y="250">DATA</text>
        
        <text x="950" y="220">TRUE</text>
        <text x="950" y="270">FALSE</text>
        <text x="950" y="320">NULL</text>
        
        <text x="1100" y="50">User</text>
        <text x="1100" y="100">ID</text>
        <text x="1100" y="150">Key</text>
        <text x="1100" y="200">Token</text>
    </g>

    <rect x="250" y="280" width="700" height="115" rx="10" fill="#0f172a" stroke="#22c55e" stroke-width="2"/>
    <text x="600" y="330" font-family="serif" font-size="40" font-weight="bold" fill="white" text-anchor="middle">TECHNICAL SKILLS</text>
    <text x="600" y="370" font-family="monospace" font-size="18" fill="#4ade80" text-anchor="middle" letter-spacing="4">SQL • APIs • TROUBLESHOOTING</text>
    
    <rect x="230" y="450" width="300" height="150" rx="5" fill="#1e293b" opacity="0.9"/>
    <text x="250" y="480" font-family="monospace" font-size="14" fill="#f472b6">SELECT</text>
    <text x="310" y="480" font-family="monospace" font-size="14" fill="#fff">*</text>
    <text x="250" y="505" font-family="monospace" font-size="14" fill="#f472b6">FROM</text>
    <text x="295" y="505" font-family="monospace" font-size="14" fill="#60a5fa">leads</text>
    <text x="250" y="530" font-family="monospace" font-size="14" fill="#f472b6">WHERE</text>
    <text x="305" y="530" font-family="monospace" font-size="14" fill="#a78bfa">status</text>
    <text x="365" y="530" font-family="monospace" font-size="14" fill="#fff">=</text>
    <text x="385" y="530" font-family="monospace" font-size="14" fill="#fbbf24">'MQL'</text>
    
    <rect x="670" y="450" width="300" height="150" rx="5" fill="#1e293b" opacity="0.9"/>
    <text x="690" y="480" font-family="monospace" font-size="14" fill="#fff">{</text>
    <text x="710" y="505" font-family="monospace" font-size="14" fill="#60a5fa">"id"</text>
    <text x="745" y="505" font-family="monospace" font-size="14" fill="#fff">: 101,</text>
    <text x="710" y="530" font-family="monospace" font-size="14" fill="#60a5fa">"sync"</text>
    <text x="765" y="530" font-family="monospace" font-size="14" fill="#fff">: </text>
    <text x="785" y="530" font-family="monospace" font-size="14" fill="#fbbf24">true</text>
    <text x="690" y="555" font-family="monospace" font-size="14" fill="#fff">}</text>

</svg>
